<svg width="1200" height="1200" viewBox="0 0 1200 1200" fill="none" xmlns="http://www.w3.org/2000/svg">
<rect width="1200" height="1200" fill="#101626"/>
<path d="M260 645.232L442.351 517.378L658.893 645.232L585.952 723.999H652.055L887.971 470.574L872.016 416.921L693.084 609.844L334.08 398.657L320.404 444.319L396.763 489.981L280.514 572.172L260 645.232Z" fill="#4DF1C5"/>
<path d="M693.084 609.844L872.016 416.921C864.038 383.814 844.663 342.718 797.936 342.721H409.3C360.293 342.721 343.198 366.693 334.08 398.657L693.084 609.844Z" fill="#36BB9F"/>
<path d="M442.351 517.378L260 645.232C260 693.174 295.331 723.999 320.404 723.999H585.952L658.893 645.232L442.351 517.378Z" fill="#36BB9F"/>
<path d="M887.971 470.574L652.055 723.999H872.016C915.324 723.999 948.375 682.901 938.118 633.816L887.971 470.574Z" fill="#4DC2C1"/>
<path d="M396.763 489.981L320.404 444.319L280.514 572.172L396.763 489.981Z" fill="#4DC2C1"/>
<path d="M572.242 242.605L590.575 240.775L621.471 549.232L603.134 551.058C522.994 559.06 451.11 496.495 442.57 411.323C434.037 326.137 492.093 250.6 572.242 242.605Z" fill="url(#paint0_linear_3781_203)"/>
<ellipse cx="146.216" cy="155.472" rx="146.216" ry="155.472" transform="matrix(-0.994426 0.105437 0.104911 0.994482 739.773 224)" fill="url(#paint1_linear_3781_203)"/>
<path d="M466.277 409.342C475.234 494.242 547.193 556.101 626.889 547.651C706.586 539.201 764.046 463.62 755.09 378.72C746.133 293.819 674.174 231.961 594.478 240.411C514.781 248.861 457.321 324.442 466.277 409.342Z" stroke="#C2E9E2" stroke-opacity="0.5" stroke-width="2"/>
<path d="M639.212 273.346C618.335 267.617 597.343 267.838 577.775 273.002C535.055 284.27 499.144 319.131 486.162 367.295C486.465 365.786 486.786 364.282 487.138 362.778C498.99 312.174 535.835 275.393 579.941 263.755C599.509 258.592 620.499 258.375 641.377 264.104C709.323 282.749 750.675 357.348 733.565 430.401C733.203 431.948 732.81 433.478 732.4 434.995C746.733 363.452 705.716 291.596 639.212 273.346Z" fill="#C2E9E2"/>
<path d="M641.678 431.904L657.14 458.453C556.081 507.128 488.704 397.61 556.084 335.108C593.074 306.901 641.678 312.432 671.489 340.086L641.678 355.573C600.253 330.685 563.807 358.341 563.807 395.4C567.672 439.096 611.298 451.265 641.678 431.904Z" fill="#4DC2C1"/>
<path d="M646.639 413.653L671.489 373.275L599.701 413.653H646.639Z" fill="#4DF1C5"/>
<path d="M671.489 373.275L646.639 413.653L671.489 452.371V373.275Z" fill="#36BB9F"/>
<g opacity="0.5" filter="url(#filter0_f_3781_203)">
<ellipse cx="597.351" cy="587.013" rx="125.366" ry="22.831" fill="#226B5B"/>
</g>
<path d="M390.219 980.25C383.219 980.25 376.644 979.025 370.494 976.575C364.394 974.075 359.019 970.425 354.369 965.625C349.769 960.825 346.169 954.95 343.569 948C340.969 941 339.669 933 339.669 924C339.669 912.2 341.869 902.125 346.269 893.775C350.669 885.375 356.694 878.95 364.344 874.5C371.994 870 380.619 867.75 390.219 867.75C403.519 867.75 414.044 870.85 421.794 877.05C429.594 883.2 434.869 891.85 437.619 903L419.169 905.925C417.119 899.525 413.769 894.425 409.119 890.625C404.469 886.775 398.544 884.85 391.344 884.85C384.094 884.75 378.069 886.325 373.269 889.575C368.469 892.825 364.844 897.4 362.394 903.3C359.994 909.2 358.794 916.1 358.794 924C358.794 931.9 359.994 938.775 362.394 944.625C364.794 950.425 368.394 954.95 373.194 958.2C378.044 961.45 384.094 963.125 391.344 963.225C396.794 963.275 401.569 962.3 405.669 960.3C409.769 958.25 413.119 955.175 415.719 951.075C418.319 946.925 420.069 941.75 420.969 935.55H401.919V921.375H440.169C440.269 922.175 440.344 923.35 440.394 924.9C440.444 926.45 440.469 927.375 440.469 927.675C440.469 937.875 438.444 946.95 434.394 954.9C430.394 962.8 424.644 969 417.144 973.5C409.644 978 400.669 980.25 390.219 980.25ZM455.532 978V870H525.282V886.95H473.607V913.575H516.282V930.525H473.607V961.05H525.282V978H455.532ZM584.41 980.25C573.61 980.25 564.36 977.9 556.66 973.2C548.96 968.45 543.035 961.85 538.885 953.4C534.785 944.95 532.735 935.15 532.735 924C532.735 912.85 534.785 903.05 538.885 894.6C543.035 886.15 548.96 879.575 556.66 874.875C564.36 870.125 573.61 867.75 584.41 867.75C595.21 867.75 604.46 870.125 612.16 874.875C619.91 879.575 625.835 886.15 629.935 894.6C634.085 903.05 636.16 912.85 636.16 924C636.16 935.15 634.085 944.95 629.935 953.4C625.835 961.85 619.91 968.45 612.16 973.2C604.46 977.9 595.21 980.25 584.41 980.25ZM584.41 963.225C591.66 963.275 597.685 961.675 602.485 958.425C607.335 955.175 610.96 950.6 613.36 944.7C615.81 938.8 617.035 931.9 617.035 924C617.035 916.1 615.81 909.25 613.36 903.45C610.96 897.6 607.335 893.05 602.485 889.8C597.685 886.55 591.66 884.875 584.41 884.775C577.16 884.725 571.135 886.325 566.335 889.575C561.535 892.825 557.91 897.4 555.46 903.3C553.06 909.2 551.86 916.1 551.86 924C551.86 931.9 553.06 938.775 555.46 944.625C557.86 950.425 561.46 954.95 566.26 958.2C571.11 961.45 577.16 963.125 584.41 963.225ZM646.618 978V959.475H665.143V978H646.618ZM723.225 1016.25C718.725 1016.25 714.4 1015.55 710.25 1014.15C706.15 1012.75 702.45 1010.73 699.15 1008.08C695.85 1005.48 693.15 1002.33 691.05 998.625L707.7 990.375C709.25 993.325 711.425 995.5 714.225 996.9C717.075 998.35 720.1 999.075 723.3 999.075C727.05 999.075 730.4 998.4 733.35 997.05C736.3 995.75 738.575 993.8 740.175 991.2C741.825 988.65 742.6 985.45 742.5 981.6V958.575H744.75V897H760.575V981.9C760.575 983.95 760.475 985.9 760.275 987.75C760.125 989.65 759.85 991.5 759.45 993.3C758.25 998.55 755.95 1002.85 752.55 1006.2C749.15 1009.6 744.925 1012.13 739.875 1013.78C734.875 1015.43 729.325 1016.25 723.225 1016.25ZM721.65 980.25C714.2 980.25 707.7 978.375 702.15 974.625C696.6 970.875 692.3 965.775 689.25 959.325C686.2 952.875 684.675 945.6 684.675 937.5C684.675 929.3 686.2 922 689.25 915.6C692.35 909.15 696.725 904.075 702.375 900.375C708.025 896.625 714.675 894.75 722.325 894.75C730.025 894.75 736.475 896.625 741.675 900.375C746.925 904.075 750.9 909.15 753.6 915.6C756.3 922.05 757.65 929.35 757.65 937.5C757.65 945.55 756.3 952.825 753.6 959.325C750.9 965.775 746.875 970.875 741.525 974.625C736.175 978.375 729.55 980.25 721.65 980.25ZM724.425 964.05C729.275 964.05 733.175 962.95 736.125 960.75C739.125 958.5 741.3 955.375 742.65 951.375C744.05 947.375 744.75 942.75 744.75 937.5C744.75 932.2 744.05 927.575 742.65 923.625C741.3 919.625 739.175 916.525 736.275 914.325C733.375 912.075 729.625 910.95 725.025 910.95C720.175 910.95 716.175 912.15 713.025 914.55C709.875 916.9 707.55 920.1 706.05 924.15C704.55 928.15 703.8 932.6 703.8 937.5C703.8 942.45 704.525 946.95 705.975 951C707.475 955 709.75 958.175 712.8 960.525C715.85 962.875 719.725 964.05 724.425 964.05ZM817.381 980.25C809.281 980.25 802.206 978.425 796.156 974.775C790.106 971.125 785.406 966.1 782.056 959.7C778.756 953.25 777.106 945.85 777.106 937.5C777.106 929 778.806 921.55 782.206 915.15C785.606 908.75 790.331 903.75 796.381 900.15C802.431 896.55 809.431 894.75 817.381 894.75C825.531 894.75 832.631 896.575 838.681 900.225C844.731 903.875 849.431 908.925 852.781 915.375C856.131 921.775 857.806 929.15 857.806 937.5C857.806 945.9 856.106 953.325 852.706 959.775C849.356 966.175 844.656 971.2 838.606 974.85C832.556 978.45 825.481 980.25 817.381 980.25ZM817.381 963.3C824.581 963.3 829.931 960.9 833.431 956.1C836.931 951.3 838.681 945.1 838.681 937.5C838.681 929.65 836.906 923.4 833.356 918.75C829.806 914.05 824.481 911.7 817.381 911.7C812.531 911.7 808.531 912.8 805.381 915C802.281 917.15 799.981 920.175 798.481 924.075C796.981 927.925 796.231 932.4 796.231 937.5C796.231 945.35 798.006 951.625 801.556 956.325C805.156 960.975 810.431 963.3 817.381 963.3Z" fill="#F6F6F6"/>
<defs>
<filter id="filter0_f_3781_203" x="467.984" y="560.182" width="258.734" height="53.6621" filterUnits="userSpaceOnUse" color-interpolation-filters="sRGB">
<feFlood flood-opacity="0" result="BackgroundImageFix"/>
<feBlend mode="normal" in="SourceGraphic" in2="BackgroundImageFix" result="shape"/>
<feGaussianBlur stdDeviation="2" result="effect1_foregroundBlur_3781_203"/>
</filter>
<linearGradient id="paint0_linear_3781_203" x1="535.419" y1="225.735" x2="602.414" y2="557.647" gradientUnits="userSpaceOnUse">
<stop stop-color="white"/>
<stop offset="0.495605" stop-color="#F4FFFD"/>
<stop offset="0.91" stop-color="white"/>
</linearGradient>
<linearGradient id="paint1_linear_3781_203" x1="146.216" y1="0" x2="146.216" y2="310.944" gradientUnits="userSpaceOnUse">
<stop stop-color="white"/>
<stop offset="1" stop-color="#F4FFFD"/>
</linearGradient>
</defs>
</svg>
