<svg width="1200" height="1200" viewBox="0 0 1200 1200" fill="none" xmlns="http://www.w3.org/2000/svg">
<rect width="1200" height="1200" fill="white"/>
<path d="M192 805.481L410.822 652.056L670.672 805.481L583.144 900.001H662.466L945.567 595.891L926.42 531.508L711.701 763.015L280.896 509.59L264.485 564.385L356.116 619.179L216.617 717.809L192 805.481Z" fill="#4DF1C5"/>
<path d="M711.701 763.015L926.42 531.508C916.846 491.779 893.597 442.464 837.524 442.467H371.16C312.352 442.467 291.837 471.234 280.896 509.59L711.701 763.015Z" fill="#36BB9F"/>
<path d="M410.822 652.056L192 805.481C192 863.012 234.397 900.001 264.485 900.001H583.144L670.672 805.481L410.822 652.056Z" fill="#36BB9F"/>
<path d="M945.567 595.891L662.466 900.001H926.42C978.39 900.001 1018.05 850.683 1005.74 791.782L945.567 595.891Z" fill="#4DC2C1"/>
<path d="M356.116 619.179L264.485 564.385L216.617 717.809L356.116 619.179Z" fill="#4DC2C1"/>
<path d="M566.679 322.326L588.679 320.13L625.754 690.279L603.75 692.47C507.582 702.073 421.321 626.994 411.073 524.788C400.833 422.565 470.501 331.92 566.679 322.326Z" fill="url(#paint0_linear_3781_204)"/>
<ellipse cx="175.459" cy="186.567" rx="175.459" ry="186.567" transform="matrix(-0.994426 0.105437 0.104911 0.994482 767.719 300)" fill="url(#paint1_linear_3781_204)"/>
<path d="M439.324 522.432C450.082 624.411 536.521 698.733 632.279 688.58C728.036 678.427 797.055 587.621 786.297 485.643C775.539 383.664 689.1 309.341 593.343 319.494C497.585 329.647 428.566 420.453 439.324 522.432Z" stroke="#C2E9E2" stroke-opacity="0.5" stroke-width="2"/>
<path d="M647.042 359.216C621.989 352.341 596.799 352.606 573.318 358.802C522.053 372.324 478.96 414.157 463.381 471.954C463.745 470.143 464.13 468.338 464.553 466.534C478.775 405.809 522.99 361.672 575.916 347.706C599.397 341.51 624.586 341.249 649.639 348.124C731.175 370.499 780.797 460.017 760.266 547.681C759.831 549.538 759.359 551.374 758.868 553.195C776.067 467.342 726.846 381.115 647.042 359.216Z" fill="#C2E9E2"/>
<path d="M650.011 549.486L668.565 581.345C547.294 639.755 466.442 508.334 547.298 433.331C591.686 399.482 650.011 406.12 685.784 439.304L650.011 457.889C600.301 428.023 556.565 461.21 556.565 505.681C561.204 558.117 613.554 572.719 650.011 549.486Z" fill="#4DC2C1"/>
<path d="M655.965 527.584L685.784 479.131L599.638 527.584H655.965Z" fill="#4DF1C5"/>
<path d="M685.784 479.131L655.965 527.584L685.784 574.046V479.131Z" fill="#36BB9F"/>
<g opacity="0.5" filter="url(#filter0_f_3781_204)">
<ellipse cx="596.823" cy="735.616" rx="150.44" ry="27.3973" fill="#226B5B"/>
</g>
<defs>
<filter id="filter0_f_3781_204" x="442.383" y="704.219" width="308.883" height="62.7949" filterUnits="userSpaceOnUse" color-interpolation-filters="sRGB">
<feFlood flood-opacity="0" result="BackgroundImageFix"/>
<feBlend mode="normal" in="SourceGraphic" in2="BackgroundImageFix" result="shape"/>
<feGaussianBlur stdDeviation="2" result="effect1_foregroundBlur_3781_204"/>
</filter>
<linearGradient id="paint0_linear_3781_204" x1="522.491" y1="302.082" x2="602.886" y2="700.378" gradientUnits="userSpaceOnUse">
<stop stop-color="white"/>
<stop offset="0.495605" stop-color="#F4FFFD"/>
<stop offset="0.91" stop-color="white"/>
</linearGradient>
<linearGradient id="paint1_linear_3781_204" x1="175.459" y1="0" x2="175.459" y2="373.134" gradientUnits="userSpaceOnUse">
<stop stop-color="white"/>
<stop offset="1" stop-color="#F4FFFD"/>
</linearGradient>
</defs>
</svg>
