<svg width="1200" height="1200" viewBox="0 0 1200 1200" fill="none" xmlns="http://www.w3.org/2000/svg">
<rect width="1200" height="1200" fill="white"/>
<path d="M150 692.259L253.782 619.787L377.022 692.259L335.51 736.906H373.13L507.399 593.257L498.317 562.845L396.482 672.199L192.161 552.492L184.378 578.375L227.836 604.258L161.675 650.846L150 692.259Z" fill="#4DF1C5"/>
<path d="M396.492 672.203L498.328 562.848C493.788 544.082 482.76 520.788 456.167 520.789H234.982C207.09 520.789 197.361 534.377 192.172 552.495L396.492 672.203Z" fill="#36BB9F"/>
<path d="M253.782 619.789L150 692.261C150 719.436 170.108 736.908 184.378 736.908H335.51L377.022 692.261L253.782 619.789Z" fill="#36BB9F"/>
<path d="M507.394 593.256L373.125 736.905H498.312C522.961 736.905 541.771 713.609 535.934 685.786L507.394 593.256Z" fill="#4DC2C1"/>
<path d="M227.833 604.258L184.374 578.375L161.672 650.846L227.833 604.258Z" fill="#4DC2C1"/>
<path d="M327.704 464.037L338.138 463L355.722 637.843L345.286 638.877C299.676 643.413 258.764 607.95 253.903 559.672C249.047 511.386 282.089 468.569 327.704 464.037Z" fill="url(#paint0_linear_3781_217)"/>
<path d="M268.121 558.473C273.181 606.24 313.812 640.966 358.729 636.223C403.645 631.48 436.102 589.035 431.043 541.268C425.984 493.502 385.352 458.774 340.435 463.517C295.519 468.261 263.062 510.706 268.121 558.473Z" fill="url(#paint1_linear_3781_217)" stroke="#C2E9E2" stroke-width="2"/>
<path d="M365.816 481.464C353.935 478.217 341.988 478.342 330.85 481.268C306.538 487.656 286.099 507.416 278.711 534.717C278.883 533.862 279.066 533.009 279.267 532.157C286.012 503.472 306.982 482.624 332.084 476.027C343.22 473.1 355.167 472.977 367.049 476.225C405.719 486.794 429.253 529.078 419.516 570.487C419.311 571.364 419.086 572.231 418.853 573.092C427.011 532.539 403.667 491.808 365.816 481.464Z" fill="#C2E9E2"/>
<path d="M367.229 571.337L376.029 586.386C318.513 613.975 280.166 551.898 318.515 516.47C339.567 500.481 367.229 503.616 384.195 519.292L367.229 528.07C343.653 513.963 322.91 529.639 322.91 550.645C325.11 575.414 349.938 582.311 367.229 571.337Z" fill="#4DC2C1"/>
<path d="M370.05 560.991L384.193 538.104L343.336 560.991H370.05Z" fill="#4DF1C5"/>
<path d="M384.197 538.104L370.055 560.991L384.197 582.938V538.104Z" fill="#36BB9F"/>
<g opacity="0.5" filter="url(#filter0_f_3781_217)">
<path d="M341.998 672.201C381.404 672.201 413.348 666.407 413.348 659.26C413.348 652.112 381.404 646.318 341.998 646.318C302.593 646.318 270.648 652.112 270.648 659.26C270.648 666.407 302.593 672.201 341.998 672.201Z" fill="#226B5B"/>
</g>
<path d="M645.164 645.669C639.105 645.669 633.411 644.612 628.087 642.499C622.806 640.341 618.152 637.193 614.126 633.052C610.144 628.91 607.027 623.841 604.775 617.845C602.524 611.806 601.398 604.904 601.398 597.139C601.398 586.958 603.304 578.267 607.113 571.063C610.923 563.815 616.139 558.272 622.762 554.433C629.385 550.551 636.853 548.609 645.164 548.609C656.68 548.609 665.793 551.284 672.502 556.633C679.255 561.939 683.822 569.402 686.203 579.022L670.229 581.545C668.455 576.023 665.554 571.623 661.528 568.345C657.502 565.023 652.372 563.362 646.138 563.362C639.862 563.276 634.645 564.635 630.489 567.439C626.333 570.243 623.196 574.19 621.074 579.28C618.996 584.37 617.957 590.323 617.957 597.139C617.957 603.956 618.996 609.887 621.074 614.934C623.151 619.938 626.268 623.841 630.424 626.646C634.624 629.45 639.862 630.894 646.138 630.981C650.858 631.024 654.991 630.182 658.541 628.457C662.091 626.688 664.991 624.035 667.242 620.498C669.494 616.918 671.008 612.453 671.787 607.104H655.294V594.875H688.411C688.498 595.564 688.563 596.579 688.605 597.916C688.65 599.253 688.67 600.051 688.67 600.31C688.67 609.11 686.917 616.94 683.411 623.799C679.948 630.615 674.969 635.963 668.476 639.846C661.982 643.728 654.212 645.669 645.164 645.669ZM701.712 643.728V550.551H762.101V565.174H717.361V588.145H754.309V602.769H717.361V629.104H762.101V643.728H701.712ZM813.294 645.669C803.943 645.669 795.936 643.641 789.268 639.587C782.602 635.488 777.472 629.794 773.879 622.504C770.329 615.215 768.554 606.759 768.554 597.139C768.554 587.52 770.329 579.065 773.879 571.774C777.472 564.484 782.602 558.811 789.268 554.757C795.936 550.658 803.943 548.609 813.294 548.609C822.644 548.609 830.653 550.658 837.32 554.757C844.03 558.811 849.16 564.484 852.709 571.774C856.302 579.065 858.099 587.52 858.099 597.139C858.099 606.759 856.302 615.215 852.709 622.504C849.16 629.794 844.03 635.488 837.32 639.587C830.653 643.641 822.644 645.669 813.294 645.669ZM813.294 630.981C819.572 631.024 824.787 629.644 828.943 626.84C833.143 624.035 836.281 620.088 838.358 614.998C840.481 609.909 841.54 603.956 841.54 597.139C841.54 590.323 840.481 584.414 838.358 579.41C836.281 574.363 833.143 570.437 828.943 567.633C824.787 564.829 819.572 563.384 813.294 563.298C807.017 563.255 801.8 564.635 797.645 567.439C793.489 570.243 790.351 574.19 788.229 579.28C786.151 584.37 785.112 590.323 785.112 597.139C785.112 603.956 786.151 609.887 788.229 614.934C790.307 619.938 793.424 623.841 797.58 626.646C801.78 629.45 807.017 630.894 813.294 630.981ZM867.153 643.728V627.746H883.192V643.728H867.153ZM933.478 676.729C929.582 676.729 925.838 676.124 922.245 674.917C918.695 673.709 915.492 671.962 912.634 669.676C909.777 667.433 907.44 664.715 905.622 661.522L920.037 654.405C921.38 656.95 923.263 658.827 925.686 660.034C928.154 661.286 930.773 661.911 933.543 661.911C936.79 661.911 939.691 661.328 942.244 660.164C944.799 659.042 946.769 657.359 948.154 655.117C949.582 652.917 950.254 650.156 950.167 646.834V626.969H952.115V573.845H965.816V647.093C965.816 648.862 965.73 650.544 965.556 652.14C965.426 653.78 965.188 655.375 964.842 656.928C963.803 661.458 961.812 665.168 958.868 668.058C955.925 670.992 952.267 673.17 947.894 674.593C943.565 676.017 938.76 676.729 933.478 676.729ZM932.115 645.669C925.665 645.669 920.037 644.052 915.232 640.816C910.427 637.581 906.705 633.181 904.063 627.616C901.423 622.051 900.102 615.775 900.102 608.787C900.102 601.712 901.423 595.414 904.063 589.892C906.747 584.327 910.536 579.949 915.427 576.757C920.319 573.521 926.076 571.904 932.699 571.904C939.367 571.904 944.951 573.521 949.452 576.757C953.998 579.949 957.439 584.327 959.777 589.892C962.114 595.457 963.283 601.756 963.283 608.787C963.283 615.732 962.114 622.009 959.777 627.616C957.439 633.181 953.955 637.581 949.322 640.816C944.691 644.052 938.955 645.669 932.115 645.669ZM934.517 631.693C938.717 631.693 942.094 630.744 944.647 628.846C947.244 626.904 949.128 624.209 950.296 620.757C951.509 617.306 952.115 613.316 952.115 608.787C952.115 604.214 951.509 600.223 950.296 596.816C949.128 593.364 947.289 590.691 944.777 588.792C942.267 586.851 939.02 585.88 935.037 585.88C930.838 585.88 927.375 586.916 924.647 588.986C921.92 591.014 919.907 593.775 918.608 597.269C917.31 600.72 916.66 604.559 916.66 608.787C916.66 613.057 917.289 616.94 918.543 620.434C919.842 623.885 921.812 626.624 924.453 628.652C927.094 630.679 930.449 631.693 934.517 631.693ZM1015 645.669C1007.99 645.669 1001.86 644.094 996.622 640.946C991.384 637.797 987.315 633.462 984.414 627.94C981.557 622.375 980.129 615.991 980.129 608.787C980.129 601.453 981.601 595.026 984.544 589.504C987.488 583.982 991.579 579.669 996.817 576.563C1002.06 573.457 1008.12 571.904 1015 571.904C1022.06 571.904 1028.2 573.478 1033.44 576.627C1038.68 579.776 1042.75 584.133 1045.65 589.698C1048.55 595.22 1050 601.582 1050 608.787C1050 616.034 1048.53 622.44 1045.58 628.004C1042.68 633.527 1038.61 637.862 1033.37 641.01C1028.14 644.116 1022.01 645.669 1015 645.669ZM1015 631.046C1021.23 631.046 1025.86 628.975 1028.89 624.834C1031.93 620.693 1033.44 615.344 1033.44 608.787C1033.44 602.014 1031.9 596.622 1028.83 592.61C1025.76 588.555 1021.15 586.527 1015 586.527C1010.8 586.527 1007.34 587.476 1004.61 589.375C1001.93 591.229 999.934 593.839 998.635 597.204C997.336 600.526 996.687 604.387 996.687 608.787C996.687 615.559 998.224 620.973 1001.3 625.028C1004.41 629.04 1008.98 631.046 1015 631.046Z" fill="#4DC2C1"/>
<defs>
<filter id="filter0_f_3781_217" x="266.648" y="642.318" width="150.703" height="33.8828" filterUnits="userSpaceOnUse" color-interpolation-filters="sRGB">
<feFlood flood-opacity="0" result="BackgroundImageFix"/>
<feBlend mode="normal" in="SourceGraphic" in2="BackgroundImageFix" result="shape"/>
<feGaussianBlur stdDeviation="2" result="effect1_foregroundBlur_3781_217"/>
</filter>
<linearGradient id="paint0_linear_3781_217" x1="306.746" y1="454.475" x2="344.58" y2="642.673" gradientUnits="userSpaceOnUse">
<stop stop-color="white"/>
<stop offset="0.495605" stop-color="#F4FFFD"/>
<stop offset="0.91" stop-color="white"/>
</linearGradient>
<linearGradient id="paint1_linear_3781_217" x1="340.299" y1="462.23" x2="358.81" y2="637.517" gradientUnits="userSpaceOnUse">
<stop stop-color="white"/>
<stop offset="1" stop-color="#F4FFFD"/>
</linearGradient>
</defs>
</svg>
